<svg viewBox="0 0 616.2934 334.3913" xmlns:xlink="http://www.w3.org/1999/xlink" xmlns="http://www.w3.org/2000/svg" id="Camada_1">
  <defs>
    <linearGradient gradientUnits="userSpaceOnUse" y2="121.397" x2="382.2667" y1="121.397" x1="234.3726" id="Gradiente_sem_nome_17">
      <stop stop-color="#b31818" offset="0"></stop>
      <stop stop-color="#af1a1b" offset=".0438"></stop>
      <stop stop-color="#902c3d" offset=".4637"></stop>
      <stop stop-color="#822d44" offset=".4799"></stop>
      <stop stop-color="#643155" offset=".5217"></stop>
      <stop stop-color="#4c3463" offset=".5681"></stop>
      <stop stop-color="#3a366d" offset=".6204"></stop>
      <stop stop-color="#2c3775" offset=".6817"></stop>
      <stop stop-color="#253879" offset=".7608"></stop>
      <stop stop-color="#23397b" offset=".9201"></stop>
    </linearGradient>
    <linearGradient gradientUnits="userSpaceOnUse" y2="121.397" x2="383.2667" y1="121.397" x1="233.3726" id="Gradiente_sem_nome_5">
      <stop stop-color="#b31818" offset="0"></stop>
      <stop stop-color="#af1a1b" offset=".0438"></stop>
      <stop stop-color="#902c3d" offset=".4637"></stop>
      <stop stop-color="#822d44" offset=".4799"></stop>
      <stop stop-color="#643155" offset=".5217"></stop>
      <stop stop-color="#4c3463" offset=".5681"></stop>
      <stop stop-color="#3a366d" offset=".6204"></stop>
      <stop stop-color="#2c3775" offset=".6817"></stop>
      <stop stop-color="#253879" offset=".7608"></stop>
      <stop stop-color="#23397b" offset=".9201"></stop>
    </linearGradient>
  </defs>
  <g>
    <path style="fill: #1d1d1b;" d="M22.6217,312.5652l-4.595,10.5454h-1.9283l-4.6097-10.5454h2.1239l3.5102,8.1347,3.5404-8.1347h1.9585Z"></path>
    <path style="fill: #1d1d1b;" d="M26.7467,312.5652h1.9577v10.5454h-1.9577v-10.5454Z"></path>
    <path style="fill: #1d1d1b;" d="M42.4725,321.4684v1.6422h-7.9089v-10.5454h7.6978v1.6415h-5.7393v2.7424h5.0914v1.6113h-5.0914v2.9079h5.9504Z"></path>
    <path style="fill: #1d1d1b;" d="M47.6677,312.5652h1.9585v10.5454h-1.9585v-10.5454Z"></path>
    <path style="fill: #1d1d1b;" d="M62.3837,323.1107l-2.1541-3.0888c-.1353.0154-.2714.0154-.4067.0154h-2.3806v3.0734h-1.9577v-10.5454h4.3383c2.7719,0,4.4891,1.4157,4.4891,3.7507,0,1.5974-.8134,2.7719-2.2445,3.3293l2.4255,3.4654h-2.1092ZM59.7325,314.2222h-2.2901v4.203h2.2901c1.7172,0,2.6064-.7832,2.6064-2.1092,0-1.3253-.8891-2.0938-2.6064-2.0938Z"></path>
    <path style="fill: #1d1d1b;" d="M76.346,320.6697h-5.2723l-1.0399,2.4409h-2.018l4.745-10.5454h1.9283l4.7605,10.5454h-2.0489l-1.0546-2.4409ZM75.6988,319.1334l-1.9886-4.6097-1.9739,4.6097h3.9625Z"></path>
    <path style="fill: #1d1d1b;" d="M85.9537,321.9656c0,.3317-.0757.6023-.3464,1.2958l-.7685,2.1239h-1.2201l.6023-2.3049c-.4214-.1809-.7082-.5729-.7082-1.1149,0-.7531.5273-1.2502,1.2208-1.2502.7075,0,1.2201.5119,1.2201,1.2502Z"></path>
    <path style="fill: #1d1d1b;" d="M105.0522,323.1107l-2.1541-3.0888c-.1353.0154-.2714.0154-.4067.0154h-2.3806v3.0734h-1.9577v-10.5454h4.3383c2.7719,0,4.4891,1.4157,4.4891,3.7507,0,1.5974-.8134,2.7719-2.2445,3.3293l2.4255,3.4654h-2.1092ZM102.401,314.2222h-2.2901v4.203h2.2901c1.7172,0,2.6064-.7832,2.6064-2.1092,0-1.3253-.8891-2.0938-2.6064-2.0938Z"></path>
    <path style="fill: #1d1d1b;" d="M112.1757,312.5652h1.9585v10.5454h-1.9585v-10.5454Z"></path>
    <path style="fill: #1d1d1b;" d="M129.3628,320.2483c0,1.8077-1.4164,2.8623-4.128,2.8623h-5.2422v-10.5454h4.9407c2.5314,0,3.8868,1.0693,3.8868,2.7417,0,1.0848-.542,1.8827-1.3554,2.3196,1.1296.3618,1.8982,1.251,1.8982,2.6218ZM121.9503,314.1016v2.9079h2.7726c1.3554,0,2.1239-.4824,2.1239-1.4466,0-.9789-.7685-1.4613-2.1239-1.4613h-2.7726ZM127.3889,320.052c0-1.0539-.7979-1.5216-2.2747-1.5216h-3.1638v3.0432h3.1638c1.4768,0,2.2747-.467,2.2747-1.5216Z"></path>
    <path style="fill: #1d1d1b;" d="M142.3756,321.4684v1.6422h-7.9089v-10.5454h7.6978v1.6415h-5.7393v2.7424h5.0914v1.6113h-5.0914v2.9079h5.9504Z"></path>
    <path style="fill: #1d1d1b;" d="M147.5707,312.5652h1.9585v10.5454h-1.9585v-10.5454Z"></path>
    <path style="fill: #1d1d1b;" d="M162.2868,323.1107l-2.1541-3.0888c-.1353.0154-.2714.0154-.4067.0154h-2.3806v3.0734h-1.9577v-10.5454h4.3383c2.7719,0,4.4891,1.4157,4.4891,3.7507,0,1.5974-.8134,2.7719-2.2445,3.3293l2.4255,3.4654h-2.1092ZM159.6355,314.2222h-2.2901v4.203h2.2901c1.7172,0,2.6064-.7832,2.6064-2.1092,0-1.3253-.8891-2.0938-2.6064-2.0938Z"></path>
    <path style="fill: #1d1d1b;" d="M168.6564,317.8376c0-3.1182,2.4108-5.4231,5.6798-5.4231s5.6798,2.2894,5.6798,5.4231-2.4108,5.4238-5.6798,5.4238-5.6798-2.3056-5.6798-5.4238ZM178.042,317.8376c0-2.1541-1.5819-3.7059-3.7059-3.7059s-3.7059,1.5518-3.7059,3.7059,1.5819,3.7059,3.7059,3.7059,3.7059-1.5518,3.7059-3.7059Z"></path>
    <path style="fill: #1d1d1b;" d="M200.1823,323.2761l-1.326-1.2804c-.9487.8134-2.1541,1.2657-3.5404,1.2657-2.2291,0-3.8412-1.1605-3.8412-2.8175,0-1.3105.7229-2.2298,2.4402-3.194-.8583-.8583-1.1745-1.5518-1.1745-2.3196,0-1.4768,1.2046-2.4858,3.0579-2.4858,1.7025,0,2.8167.8884,2.8167,2.3196,0,1.0848-.6325,1.868-2.1541,2.727l2.2747,2.1695c.2567-.4972.4523-1.1002.5876-1.7775l1.5216.4972c-.1956.9186-.5119,1.732-.9487,2.41l1.3253,1.2657-1.0392,1.2201ZM197.7414,320.9264l-2.7866-2.6667c-1.2201.6781-1.6422,1.2348-1.6422,1.9886,0,.8737.8435,1.476,2.1394,1.476.8737,0,1.6422-.2714,2.2894-.7979ZM194.4576,314.9002c0,.467.1956.8134.9487,1.5665,1.2208-.6626,1.6121-1.0995,1.6121-1.6724,0-.6023-.4368-1.009-1.2201-1.009-.8435,0-1.3407.467-1.3407,1.1149Z"></path>
    <path style="fill: #1d1d1b;" d="M215.0462,314.2067v3.2094h5.0922v1.6569h-5.0922v4.0375h-1.9577v-10.5454h7.6978v1.6415h-5.7401Z"></path>
    <path style="fill: #1d1d1b;" d="M232.0825,320.6697h-5.2723l-1.0399,2.4409h-2.018l4.745-10.5454h1.9283l4.7605,10.5454h-2.0489l-1.0546-2.4409ZM231.4353,319.1334l-1.9886-4.6097-1.9739,4.6097h3.9625Z"></path>
    <path style="fill: #1d1d1b;" d="M246.436,323.1107l-2.1541-3.0888c-.1353.0154-.2714.0154-.4067.0154h-2.3799v3.0734h-1.9585v-10.5454h4.3383c2.7719,0,4.4891,1.4157,4.4891,3.7507,0,1.5974-.8134,2.7719-2.2445,3.3293l2.4255,3.4654h-2.1092ZM243.7848,314.2222h-2.2894v4.203h2.2894c1.7172,0,2.6064-.7832,2.6064-2.1092,0-1.3253-.8891-2.0938-2.6064-2.0938Z"></path>
    <path style="fill: #1d1d1b;" d="M253.5594,312.5652h1.9577v10.5454h-1.9577v-10.5454Z"></path>
    <path style="fill: #1d1d1b;" d="M268.2152,320.6697h-5.2723l-1.0399,2.4409h-2.018l4.745-10.5454h1.9283l4.7605,10.5454h-2.0489l-1.0546-2.4409ZM267.568,319.1334l-1.9886-4.6097-1.9739,4.6097h3.9625Z"></path>
    <path style="fill: #1d1d1b;" d="M277.8237,321.9656c0,.3317-.0757.6023-.3464,1.2958l-.7685,2.1239h-1.2201l.6023-2.3049c-.4214-.1809-.7082-.5729-.7082-1.1149,0-.7531.5273-1.2502,1.2208-1.2502.7075,0,1.2201.5119,1.2201,1.2502Z"></path>
    <path style="fill: #1d1d1b;" d="M290.0231,312.5652h1.9585v8.8877h5.5136v1.6577h-7.472v-10.5454Z"></path>
    <path style="fill: #1d1d1b;" d="M302.057,312.5652h4.6097c3.4198,0,5.7548,2.1085,5.7548,5.2723s-2.335,5.2731-5.7548,5.2731h-4.6097v-10.5454ZM306.5763,321.453c2.3497,0,3.8713-1.4312,3.8713-3.6154s-1.5216-3.6154-3.8713-3.6154h-2.5615v7.2308h2.5615Z"></path>
    <path style="fill: #1d1d1b;" d="M324.198,320.6697h-5.2723l-1.0399,2.4409h-2.018l4.745-10.5454h1.9283l4.7605,10.5454h-2.0489l-1.0546-2.4409ZM323.5508,319.1334l-1.9886-4.6097-1.9739,4.6097h3.9625Z"></path>
  </g>
  <g>
    <path style="fill: #1d1d1b;" d="M426.2551,321.7167h-5.4305l-1.0711,2.5134h-2.0786l4.8874-10.8618h1.9862l4.9033,10.8618h-2.1104l-1.0863-2.5134ZM425.5885,320.1335l-2.0483-4.748-2.0331,4.748h4.0814Z"></path>
    <path style="fill: #1d1d1b;" d="M433.9331,313.3683h2.0172v9.1544h5.679v1.7074h-7.6962v-10.8618Z"></path>
    <path style="fill: #1d1d1b;" d="M455.4832,313.3683l-4.7329,10.8618h-1.9862l-4.748-10.8618h2.1877l3.6155,8.3787,3.6466-8.3787h2.0172Z"></path>
    <path style="fill: #1d1d1b;" d="M466.4351,321.7167h-5.4305l-1.0711,2.5134h-2.0786l4.8874-10.8618h1.9862l4.9033,10.8618h-2.1104l-1.0863-2.5134ZM465.7685,320.1335l-2.0483-4.748-2.0331,4.748h4.0814Z"></path>
    <path style="fill: #1d1d1b;" d="M481.2193,324.2301l-2.2187-3.1815c-.1394.0159-.2795.0159-.4189.0159h-2.452v3.1656h-2.0165v-10.8618h4.4685c2.855,0,4.6238,1.4582,4.6238,3.864,0,1.6445-.8378,2.8543-2.3119,3.4284l2.4982,3.5693h-2.1725ZM478.4885,315.0749h-2.3589v4.3299h2.3589c1.7688,0,2.6846-.8075,2.6846-2.1725,0-1.3658-.9158-2.1574-2.6846-2.1574Z"></path>
    <path style="fill: #1d1d1b;" d="M495.6004,321.7167h-5.4305l-1.0711,2.5134h-2.0786l4.8874-10.8618h1.9862l4.9033,10.8618h-2.1104l-1.0863-2.5134ZM494.9338,320.1335l-2.0483-4.748-2.0331,4.748h4.0814ZM493.2734,312.4843h-1.6763l2.0952-2.1263h2.2808l-2.6997,2.1263Z"></path>
    <path style="fill: #1d1d1b;" d="M520.3138,313.3683v10.8618h-1.6604l-5.9896-7.3553v7.3553h-2.0013v-10.8618h1.6597l5.9896,7.3546v-7.3546h2.0021Z"></path>
    <path style="fill: #1d1d1b;" d="M525.3073,315.137c0-1.4589,1.1946-2.5293,2.8391-2.5293,1.6604,0,2.8399,1.0703,2.8399,2.5293,0,1.4892-1.1794,2.5452-2.8399,2.5452-1.6445,0-2.8391-1.056-2.8391-2.5452ZM529.6516,315.137c0-.8529-.6052-1.4271-1.5052-1.4271s-1.5052.5742-1.5052,1.4271c0,.8696.6052,1.443,1.5052,1.443s1.5052-.5734,1.5052-1.443Z"></path>
    <path style="fill: #1d1d1b;" d="M550.7813,313.3683v1.3499l-4.2208,9.5119h-2.1566l4.0807-9.1551h-4.267v1.8468h-1.8771v-3.5534h8.4408Z"></path>
    <path style="fill: #1d1d1b;" d="M562.7111,320.9713c0,1.8316-1.3809,3.4141-4.2981,3.4141-1.5362,0-3.0724-.4659-4.0814-1.2567l.8696-1.568c.7757.6522,1.9551,1.0711,3.1807,1.0711,1.443,0,2.2967-.6363,2.2967-1.6445,0-.9779-.7143-1.6142-2.3589-1.6142h-.9931v-1.3802l2.4672-2.933h-4.9344v-1.6915h7.4015v1.3499l-2.6376,3.1345c2.0483.2636,3.0876,1.49,3.0876,3.1186Z"></path>
    <path style="fill: #1d1d1b;" d="M574.7652,320.9713c0,1.8316-1.3809,3.4141-4.2981,3.4141-1.5362,0-3.0724-.4659-4.0814-1.2567l.8696-1.568c.7757.6522,1.9551,1.0711,3.1807,1.0711,1.443,0,2.2967-.6363,2.2967-1.6445,0-.9779-.7143-1.6142-2.3589-1.6142h-.9931v-1.3802l2.4672-2.933h-4.9344v-1.6915h7.4015v1.3499l-2.6376,3.1345c2.0483.2636,3.0876,1.49,3.0876,3.1186Z"></path>
    <path style="fill: #1d1d1b;" d="M586.8193,320.9713c0,1.8316-1.3809,3.4141-4.2981,3.4141-1.5362,0-3.0724-.4659-4.0814-1.2567l.8696-1.568c.7757.6522,1.9551,1.0711,3.1807,1.0711,1.443,0,2.2967-.6363,2.2967-1.6445,0-.9779-.7143-1.6142-2.3589-1.6142h-.9931v-1.3802l2.4672-2.933h-4.9344v-1.6915h7.4015v1.3499l-2.6376,3.1345c2.0483.2636,3.0876,1.49,3.0876,3.1186Z"></path>
    <path style="fill: #1d1d1b;" d="M599.028,322.5227v1.7074h-8.0068v-1.3499l4.314-4.0966c1.0552-1.009,1.2408-1.6453,1.2408-2.2498,0-.9938-.6825-1.5673-2.0172-1.5673-1.0552,0-1.9392.3568-2.5444,1.1325l-1.412-1.0863c.8378-1.1325,2.3429-1.7998,4.1276-1.7998,2.3581,0,3.8792,1.1953,3.8792,3.1194,0,1.0544-.2947,2.0165-1.7998,3.4284l-2.902,2.7618h5.1207Z"></path>
  </g>
  <path style="fill: #23397b;" d="M602.6096,22.7246c0,7.7772-6.6218,13.8743-15.1243,13.8743s-15.0384-6.0972-15.0384-13.7965,6.5367-13.7965,15.1243-13.7965,15.0384,5.9407,15.0384,13.7186ZM599.7051,22.7246c0-6.3704-5.0848-11.1776-12.1339-11.1776s-12.1764,4.924-12.1764,11.2555,5.1266,11.2563,12.0905,11.2563,12.2198-4.9637,12.2198-11.3341ZM592.3131,25.3037l3.6321,5.0812h-4.4432l-3.119-4.3775h-2.9479v4.3775h-4.4432v-15.1643h7.2201c4.5283,0,7.2201,2.1105,7.2201,5.3934,0,2.2273-1.1106,3.8302-3.119,4.6897ZM587.9125,22.9589c2.0084,0,3.1615-.8595,3.1615-2.3448,0-1.5243-1.1531-2.3845-3.1615-2.3845h-2.5207v4.7294h2.5207Z"></path>
  <g>
    <path style="fill: #b31818;" d="M46.9821,97.4423v1.7641c0,6.5412,3.7925,9.807,11.3776,9.807h125.1348c6.5393,0,12.4541.6225,17.7522,1.8637,5.2942,1.245,9.807,3.2371,13.5344,5.9819,3.7236,2.7467,6.5699,6.3745,8.5313,10.8854,1.9614,4.5127,2.9421,9.9736,2.9421,16.3788v13.5325c0,6.5412-.9807,12.0327-2.9421,16.4765-1.9614,4.4476-4.8077,8.041-8.5313,10.7877-3.7274,2.7467-8.2402,4.7426-13.5344,5.9838-5.2981,1.2412-11.2129,1.8618-17.7522,1.8618H21.6793c-5.4896,0-8.2363-2.7467-8.2363-8.2382v-15.6912c0-5.4915,2.7467-8.2382,8.2363-8.2382h156.7164c7.5813,0,11.3776-3.2658,11.3776-9.807v-1.7641c0-6.5374-3.7964-9.807-11.3776-9.807H53.257c-6.5393,0-12.4541-.6187-17.7483-1.8637-5.2981-1.2412-9.807-3.2371-13.5344-5.9819-3.7274-2.7467-6.5699-6.342-8.5313-10.7877-1.9614-4.4438-2.9421-9.9353-2.9421-16.4765v-13.5325c0-6.4052.9807-11.868,2.9421-16.3788s4.8039-8.1386,8.5313-10.8854c3.7274-2.7467,8.2363-4.7388,13.5344-5.9819,5.2942-1.2412,11.2091-1.8637,17.7483-1.8637h159.8538c5.4934,0,8.2402,2.7467,8.2402,8.2382v15.6912c0,5.4915-2.7467,8.2382-8.2402,8.2382H58.3597c-7.5851,0-11.3776,3.2696-11.3776,9.807Z"></path>
    <path style="fill: #b31818;" d="M427.1274,97.4423v1.7641c0,6.5412,3.7925,9.807,11.3776,9.807h125.1348c6.5393,0,12.4541.6225,17.7522,1.8637,5.2942,1.245,9.807,3.2371,13.5344,5.9819,3.7236,2.7467,6.5699,6.3745,8.5313,10.8854,1.9614,4.5127,2.9421,9.9736,2.9421,16.3788v13.5325c0,6.5412-.9807,12.0327-2.9421,16.4765-1.9614,4.4476-4.8077,8.041-8.5313,10.7877-3.7274,2.7467-8.2402,4.7426-13.5344,5.9838-5.2981,1.2412-11.2129,1.8618-17.7522,1.8618h-161.8152c-5.4896,0-8.2363-2.7467-8.2363-8.2382v-15.6912c0-5.4915,2.7467-8.2382,8.2363-8.2382h156.7164c7.5813,0,11.3776-3.2658,11.3776-9.807v-1.7641c0-6.5374-3.7964-9.807-11.3776-9.807h-125.1386c-6.5393,0-12.4541-.6187-17.7483-1.8637-5.2981-1.2412-9.807-3.2371-13.5344-5.9819-3.7274-2.7467-6.5699-6.342-8.5313-10.7877-1.9614-4.4438-2.9421-9.9353-2.9421-16.4765v-13.5325c0-6.4052.9807-11.868,2.9421-16.3788,1.9614-4.5108,4.8039-8.1386,8.5313-10.8854s8.2363-4.7388,13.5344-5.9819c5.2942-1.2412,11.2091-1.8637,17.7483-1.8637h159.8538c5.4934,0,8.2402,2.7467,8.2402,8.2382v15.6912c0,5.4915-2.7467,8.2382-8.2402,8.2382h-154.7511c-7.5851,0-11.3776,3.2696-11.3776,9.807Z"></path>
  </g>
  <g>
    <path style="fill: #23397b;" d="M25.0268,241.6105v.7318c0,2.7134,1.5732,4.0682,4.7197,4.0682h51.9106c2.7111,0,5.1663.2582,7.3624.7731,2.1978.5165,4.0682,1.3428,5.6144,2.4814,1.5462,1.1394,2.7254,2.6443,3.539,4.5155.8136,1.872,1.2205,4.1373,1.2205,6.7943v5.6136c0,2.7134-.4068,4.9915-1.2205,6.8349-.8136,1.845-1.9928,3.3356-3.539,4.475-1.5462,1.1394-3.4166,1.9673-5.6144,2.4822-2.1962.5149-4.6514.7723-7.3624.7723H14.5322c-2.2788,0-3.4182-1.1394-3.4182-3.4174v-6.5091c0-2.278,1.1394-3.4174,3.4182-3.4174h65.0082c3.1465,0,4.7197-1.3547,4.7197-4.0682v-.7318c0-2.7119-1.5732-4.0682-4.7197-4.0682H27.6314c-2.7126,0-5.1663-.2566-7.364-.7731-2.1962-.5149-4.0682-1.3428-5.6144-2.4814-1.5446-1.1394-2.7254-2.6308-3.539-4.475-.8136-1.8434-1.2205-4.1214-1.2205-6.8349v-5.6136c0-2.657.4068-4.9231,1.2205-6.7943s1.9944-3.3761,3.539-4.5155c1.5462-1.1394,3.4182-1.9658,5.6144-2.4814,2.1978-.5149,4.6514-.7731,7.364-.7731h66.3113c2.2772,0,3.4166,1.1394,3.4166,3.4174v6.5091c0,2.278-1.1394,3.4174-3.4166,3.4174H29.7465c-3.1465,0-4.7197,1.3563-4.7197,4.0682Z"></path>
    <path style="fill: #23397b;" d="M287.5467,251.4551c1.4366-2.1151,2.1565-5.0447,2.1565-8.7871v-3.9053c0-2.657-.3941-4.9231-1.1807-6.7943s-1.926-3.3761-3.4166-4.5155c-1.4922-1.1394-3.3102-1.9658-5.4523-2.4814-2.1421-.5149-4.5703-.7731-7.2814-.7731h-66.7181c-2.2788,0-3.4166,1.1394-3.4166,3.4174v9.7541l67.6128.1724c3.1449,0,4.7181,1.3563,4.7181,4.0682v3.6614c0,2.7126-1.5732,4.0682-4.7181,4.0682l-67.6128-.1724v28.5678c0,2.278,1.1378,3.4174,3.4166,3.4174h8.2984c2.2788,0,3.4182-1.1394,3.4182-3.4174v-15.0523h50.1196c2.2788,0,4.0269.5292,5.2473,1.5867s1.8307,2.6721,1.8307,4.8413v8.6242c0,2.278,1.1394,3.4174,3.4182,3.4174h8.2984c2.2788,0,3.4182-1.1394,3.4182-3.4174v-8.3803c0-3.6884-.7199-6.6028-2.1565-8.7466-1.4382-2.1421-3.539-3.6741-6.3057-4.5974,2.7667-.9217,4.8675-2.4409,6.3057-4.556Z"></path>
    <path style="fill: #23397b;" d="M329.6443,279.3465l-33.1648-49.6318c-.5448-.8136-.6666-1.6543-.371-2.5227.2971-.8669.8912-1.3015,1.7809-1.3015h9.5711c1.1868,0,2.1258.2034,2.8199.6102.6912.4068,1.31,1.017,1.8548,1.8307l27.228,41.1696,27.2294-41.1696c.5434-.8136,1.1607-1.4239,1.8548-1.8307.6912-.4068,1.6316-.6102,2.8184-.6102h9.2001c.8897,0,1.4838.4346,1.7809,1.3015.2971.8685.1724,1.7091-.371,2.5227l-33.1648,49.6318c-1.5331,2.3321-3.7096,3.4985-6.528,3.4985h-6.0107c-2.8184,0-4.9964-1.1664-6.528-3.4985Z"></path>
    <path style="fill: #23397b;" d="M407.4355,277.7354c0,2.278-1.1394,3.4174-3.4182,3.4174h-8.2984c-2.2788,0-3.4182-1.1394-3.4182-3.4174v-50.1196c0-2.278,1.1394-3.4174,3.4182-3.4174h8.2984c2.2788,0,3.4182,1.1394,3.4182,3.4174v50.1196Z"></path>
    <path style="fill: #23397b;" d="M421.0639,276.7184c-2.9033-2.9558-4.3542-7.1455-4.3542-12.5708v-22.9439c0-5.4237,1.4509-9.6142,4.3542-12.5708,2.9002-2.9558,7.0907-4.4345,12.57-4.4345h65.9045c2.2788,0,3.4166,1.1394,3.4166,3.4174v6.5091c0,2.278-1.1378,3.4174-3.4166,3.4174h-61.6742c-4.0141,0-6.0196,2.0071-6.0196,6.0204v18.2258c0,4.0149,2.0055,6.0204,6.0196,6.0204h61.6742c2.2788,0,3.4166,1.1394,3.4166,3.4174v6.5091c0,2.278-1.1378,3.4174-3.4166,3.4174h-65.9045c-5.4793,0-9.6699-1.4779-12.57-4.4345Z"></path>
    <g>
      <path style="fill: #23397b;" d="M121.4426,246.4104h61.1863c2.2772,0,3.4166,1.1394,3.4166,3.4174v5.6954c0,2.278-1.1394,3.4174-3.4166,3.4174h-61.1863v2.8477c0,4.0149,2.0071,6.0204,6.0212,6.0204h63.3015c2.2772,0,3.4166,1.1394,3.4166,3.4174v6.5091c0,2.278-1.1394,3.4174-3.4166,3.4174h-67.5318c-5.4793,0-9.6699-1.4779-12.5716-4.4345-2.9018-2.9558-4.3526-7.1455-4.3526-12.5708v-17.8436"></path>
      <path style="fill: #23397b;" d="M111.5606,238.5033c-3.5107,0-5.2666-1.0448-5.2666-3.1344v-7.6094c0-2.0896,1.7559-3.1344,5.2666-3.1344h77.2395c3.5107,0,5.2666,1.0448,5.2666,3.1344v7.6094c0,2.0896-1.7559,3.1344-5.2666,3.1344h-77.2395Z"></path>
    </g>
    <g>
      <path style="fill: #23397b;" d="M531.4875,247.1467h61.1863c2.2772,0,3.4166,1.1394,3.4166,3.4174v5.6954c0,2.278-1.1394,3.4174-3.4166,3.4174h-61.1863v2.8477c0,4.0149,2.0071,6.0204,6.0212,6.0204h63.3015c2.2772,0,3.4166,1.1394,3.4166,3.4174v6.5091c0,2.278-1.1394,3.4174-3.4166,3.4174h-67.5318c-5.4793,0-9.6699-1.4779-12.5716-4.4345-2.9018-2.9558-4.3526-7.1455-4.3526-12.5708v-17.8436"></path>
      <path style="fill: #23397b;" d="M521.6054,239.2396c-3.5107,0-5.2666-1.0448-5.2666-3.1344v-7.6094c0-2.0896,1.7559-3.1344,5.2666-3.1344h77.2395c3.5107,0,5.2666,1.0448,5.2666,3.1344v7.6094c0,2.0896-1.7559,3.1344-5.2666,3.1344h-77.2395Z"></path>
    </g>
  </g>
  <path style="fill: url(#Gradiente_sem_nome_17); stroke: url(#Gradiente_sem_nome_5); stroke-miterlimit: 10; stroke-width: 2px;" d="M346.2743,63.9842l.0154-.0081-37.97-19.8252v10.3257c-40.7748.0001-73.9471,29.9996-73.9471,66.874,0,24.366,14.4901,45.7222,36.0812,57.4126l-.1045.0544,37.9703,19.8252v-10.4185h.0001c40.7745,0,73.9469-29.9994,73.9469-66.8738,0-24.333-14.4499-45.6658-35.9924-57.3665ZM308.3198,171.2196h-.0001v-12.2273l-18.1043,9.4529c-21.5377-6.7913-37.0393-25.3306-37.0393-47.0945,0-27.4985,24.7374-49.8689,55.1436-49.869v12.3199l18.216-9.5112c21.4796,6.8198,36.9277,25.3339,36.9277,47.0603,0,27.4985-24.7377,49.8689-55.1436,49.8689Z"></path>
</svg>